<svg width="64" height="64" viewBox="0 0 1024 1024" xmlns="http://www.w3.org/2000/svg">
  <defs>
    <clipPath id="roundedCorners">
      <rect width="1024" height="1024" rx="140" ry="140"/>
    </clipPath>
  </defs>
  <g clip-path="url(#roundedCorners)">
    <path fill="#008BD2" d="M669,1025C446,1025,223.5,1025,1,1025C1,683.667,1,342.333,1,1C342.333,1,683.667,1,1025,1C1025,342.333,1025,683.667,1025,1025C906.5,1025,788,1025,669,1025M297.501,822.908C382.661,822.847,467.821,822.895,552.98,822.607C565.765,822.563,578.74,822.058,591.294,819.86C655.953,808.535,701.252,772.27,726.383,711.687C738.43,682.645,740.445,651.871,737.841,620.788C734.498,580.883,719.116,546.476,689.938,518.718C683.472,512.566,676.137,507.327,669.208,501.672C669.293,501.504,669.33,501.326,669.44,501.23C670.818,500.027,672.197,498.824,673.593,497.642C694.841,479.639,709.897,457.528,718.228,430.864C725.958,406.126,727.528,380.838,725.039,355.23C720.666,310.241,701.898,272.438,667.173,243.262C635.47,216.626,598.434,203.83,557.094,203.789C465.601,203.7,374.107,203.774,282.614,203.799C281.198,203.8,279.782,204.028,278.36,204.151C278.36,410.545,278.36,616.462,278.36,822.909C284.604,822.909,290.552,822.909,297.501,822.908z"/>
    <path fill="#FDFDFD" d="M297.001,822.908C290.552,822.909,284.604,822.909,278.36,822.909C278.36,616.462,278.36,410.545,278.36,204.151C279.782,204.028,281.198,203.8,282.614,203.799C374.107,203.774,465.601,203.7,557.094,203.789C598.434,203.83,635.47,216.626,667.173,243.262C701.898,272.438,720.666,310.241,725.039,355.23C727.528,380.838,725.958,406.126,718.228,430.864C709.897,457.528,694.841,479.639,673.593,497.642C672.197,498.824,670.818,500.027,669.44,501.23C669.33,501.326,669.293,501.504,669.208,501.672C676.137,507.327,683.472,512.566,689.938,518.718C719.116,546.476,734.498,580.883,737.841,620.788C740.445,651.871,738.43,682.645,726.383,711.687C701.252,772.27,655.953,808.535,591.294,819.86C578.74,822.058,565.765,822.563,552.98,822.607C467.821,822.895,382.661,822.847,297.001,822.908M600.358,447.139C592.259,442.755,584.16,438.371,575.577,433.726C595.091,422.759,603.012,405.719,603.412,384.888C603.806,364.361,598.086,346.307,579.724,334.443C569.018,327.526,557.049,325.087,544.492,325.082C496.996,325.06,449.5,325.074,402.004,325.094C400.736,325.095,399.467,325.32,398.09,325.451C398.09,450.399,398.09,574.991,398.09,699.785C398.922,699.909,399.548,700.086,400.174,700.085C453.336,700.057,506.499,700.206,559.658,699.856C575.285,699.753,589.45,694.475,600.938,683.431C618.834,666.228,622.696,632.878,609.766,609.544C604.844,600.659,597.977,593.675,588.963,588.109C591.066,586.825,592.629,585.935,594.126,584.947C605.794,577.247,618.113,570.357,628.981,561.656C659.747,537.025,659.658,489.484,628.887,464.956C620.367,458.164,610.334,453.272,600.358,447.139z"/>
    <path fill="#018AD0" d="M600.677,447.324C610.334,453.272,620.367,458.164,628.887,464.956C659.658,489.484,659.747,537.025,628.981,561.656C618.113,570.357,605.794,577.247,594.126,584.947C592.629,585.935,591.066,586.825,588.963,588.109C597.977,593.675,604.844,600.659,609.766,609.544C622.696,632.878,618.834,666.228,600.938,683.431C589.45,694.475,575.285,699.753,559.658,699.856C506.499,700.206,453.336,700.057,400.174,700.085C399.548,700.086,398.922,699.909,398.09,699.785C398.09,574.991,398.09,450.399,398.09,325.451C399.467,325.32,400.736,325.095,402.004,325.094C449.5,325.074,496.996,325.06,544.492,325.082C557.049,325.087,569.018,327.526,579.724,334.443C598.086,346.307,603.806,364.361,603.412,384.888C603.012,405.719,595.091,422.759,575.577,433.726C584.16,438.371,592.259,442.755,600.677,447.324M598.155,530.739C612.083,520.846,611.793,504.336,597.548,496.12C556.173,472.256,514.795,448.398,473.425,424.525C457.493,415.331,441.577,424.341,441.566,442.655C441.535,490.63,441.554,538.605,441.575,586.581C441.576,588.407,441.652,590.26,441.962,592.054C444.08,604.341,455.134,611.492,466.677,607.893C469.33,607.066,471.798,605.526,474.221,604.093C515.332,579.78,556.422,555.431,598.155,530.739z"/>
    <path fill="#FDFEFE" d="M597.836,530.915C556.422,555.431,515.332,579.78,474.221,604.093C471.798,605.526,469.33,607.066,466.677,607.893C455.134,611.492,444.08,604.341,441.962,592.054C441.652,590.26,441.576,588.407,441.575,586.581C441.554,538.605,441.535,490.63,441.566,442.655C441.577,424.341,457.493,415.331,473.425,424.525C514.795,448.398,556.173,472.256,597.548,496.12C611.793,504.336,612.083,520.846,597.836,530.915z"/>
  </g>
</svg>
